<?xml version="1.0" encoding="UTF-8" standalone="no"?>
<!DOCTYPE svg PUBLIC "-//W3C//DTD SVG 1.1//EN" "http://www.w3.org/Graphics/SVG/1.1/DTD/svg11.dtd">
<svg
  width="100%"
  height="100%"
  viewBox="0 0 3508 3508"
  version="1.1"
  xmlns="http://www.w3.org/2000/svg"
  xmlns:xlink="http://www.w3.org/1999/xlink"
  xml:space="preserve"
  xmlns:serif="http://www.serif.com/"
  style="fill-rule: evenodd; clip-rule: evenodd; stroke-linejoin: round; stroke-miterlimit: 2"
>
  <g
    id="Plan-de-travail1"
    serif:id="Plan de travail1"
    transform="matrix(1,0,0,1,-535,0)"
  >
    <rect x="535" y="0" width="3508" height="3508" style="fill: none" />
    <path d="M3543,0C3819.142,0 4043,223.858 4043,500L4043,3008C4043,3284.142 3819.142,3508 3543,3508L1035,3508C758.858,3508 535,3284.142 535,3008L535,500C535,223.858 758.858,0 1035,0L3543,0Z" />
    <g
      id="Calque1"
      transform="matrix(2.209472,0,0,2.232693,789.000796,-2162.000793)"
    >
      <g transform="matrix(0.449061,0,0,0.449061,-434.917735,959.25072)">
        <path
          d="M1364.01,2445.454C1320.807,2475.705 1266.372,2485.135 1215.51,2471.179C1164.649,2457.222 1122.65,2421.33 1100.937,2373.266C1015.864,2184.203 968.504,1974.557 968.504,1753.937C968.504,1032.059 1475.549,427.673 2152.615,277.802C2205.054,266.18 2259.934,278.978 2301.821,312.599C2343.709,346.219 2368.079,397.029 2368.079,450.74C2368.11,575.281 2368.11,731.186 2368.11,841.899C2368.11,918.847 2318.446,986.964 2245.261,1010.533C1929.753,1110.33 1700.787,1405.606 1700.787,1753.937C1700.787,1846.538 1716.969,1935.39 1746.656,2017.816C1746.673,2017.863 1746.689,2017.909 1746.706,2017.955C1773.769,2093.17 1747.111,2177.201 1681.622,2223.057C1590.402,2286.933 1464.195,2375.304 1364.01,2445.454Z"
          style="fill: white"
        />
      </g>
      <g transform="matrix(0.449061,0,0,0.449061,-434.917735,959.25072)">
        <path
          d="M2872.625,1385.529C2882.988,1376.029 2896.905,1371.269 2910.985,1372.411C2925.064,1373.552 2938.013,1380.489 2946.676,1391.532C3024.452,1491.683 3070.866,1617.432 3070.866,1753.937C3070.866,2079.871 2806.249,2344.488 2480.315,2344.488C2154.381,2344.488 1889.764,2079.871 1889.764,1753.937C1889.764,1428.003 2154.381,1163.386 2480.315,1163.386C2618.108,1163.386 2744.942,1210.681 2845.455,1289.909C2856.256,1298.49 2862.997,1311.103 2864.088,1324.767C2865.178,1338.431 2860.52,1351.935 2851.215,1362.087C2800.712,1417.405 2707.522,1519.077 2664.553,1565.956C2629.154,1604.591 2582.069,1630.849 2530.339,1640.807C2513.958,1643.876 2497.22,1645.486 2480.315,1645.486C2409.836,1645.486 2342.242,1617.489 2292.406,1567.652C2342.242,1617.489 2370.24,1685.082 2370.24,1755.561C2370.24,1826.041 2342.242,1893.634 2292.406,1943.47C2342.242,1893.634 2409.836,1865.636 2480.315,1865.636C2550.794,1865.636 2618.387,1893.634 2668.224,1943.47C2618.387,1893.634 2590.39,1826.041 2590.39,1755.561C2590.39,1709.836 2602.174,1665.326 2624.061,1626.092C2633.128,1609.681 2644.822,1594.832 2658.688,1582.123C2697.439,1546.1 2812.053,1441.047 2872.625,1385.529Z"
          style="fill: white"
        />
      </g>
      <g transform="matrix(0.449061,0,0,0.449061,-434.917735,959.25072)">
        <path
          d="M3164.549,1020.453C3086.001,1106.148 2958.204,1127.117 2855.911,1071.094C2811.836,1046.513 2765.034,1026.299 2716.149,1010.78L2716.031,1010.742C2642.485,987.372 2592.522,919.078 2592.522,841.899C2592.52,731.186 2592.52,575.281 2592.52,450.74C2592.52,397.02 2616.895,346.201 2658.789,312.575C2700.684,278.949 2755.574,266.148 2808.022,277.772C2974.965,314.733 3131.572,379.326 3272.79,466.499C3335.842,505.734 3378.111,570.575 3388.238,643.597C3398.365,716.619 3375.31,790.332 3325.271,844.925C3272.45,902.73 3215.3,965.083 3164.549,1020.453Z"
          style="fill: white"
        />
      </g>
      <g transform="matrix(0.449061,0,0,0.449061,-434.917735,959.25072)">
        <path
          d="M3385.725,915.233C3441.342,864.254 3517.198,840.766 3592.259,851.28C3667.32,861.794 3733.608,905.194 3772.743,969.446C3911.901,1198.246 3992.126,1466.797 3992.126,1753.937C3992.126,1974.557 3944.766,2184.203 3859.668,2373.254C3837.958,2421.311 3795.966,2457.197 3745.112,2471.152C3694.259,2485.106 3639.832,2475.678 3596.635,2445.432C3496.435,2375.304 3370.228,2286.933 3279.007,2223.059C3213.696,2177.328 3187.005,2093.63 3213.701,2018.573C3243.562,1935.934 3259.843,1846.822 3259.843,1753.937C3259.843,1617.242 3224.582,1488.717 3162.668,1376.97C3107.088,1276.689 3127.577,1151.847 3212.371,1074.127C3266.864,1024.178 3328.39,967.785 3385.725,915.233Z"
          style="fill: white"
        />
      </g>
      <g transform="matrix(0.449061,0,0,0.449061,-434.917735,959.25072)">
        <path
          d="M3453.589,2619.256C3498.371,2650.613 3526.169,2700.887 3528.914,2755.487C3531.659,2810.086 3509.043,2862.895 3467.632,2898.585C3202.622,3127.313 2857.507,3265.748 2480.315,3265.748C2103.122,3265.748 1758.008,3127.313 1493.051,2898.524C1451.658,2862.85 1429.053,2810.065 1431.797,2755.491C1434.54,2700.916 1462.325,2650.664 1507.087,2619.322C1611.011,2546.456 1740.341,2455.898 1830.51,2392.761C1890.853,2350.508 1970.97,2350.043 2031.754,2391.387C2158.639,2480.881 2313.385,2533.465 2480.315,2533.465C2646.453,2533.465 2800.522,2481.378 2927.069,2392.658C2988.059,2350.06 3069.168,2350.108 3130.108,2392.779C3220.289,2455.898 3349.619,2546.456 3453.589,2619.256Z"
          style="fill: white"
        />
      </g>
    </g>
  </g>
</svg>
