<?xml version="1.0" encoding="UTF-8" standalone="no"?>
<!DOCTYPE svg PUBLIC "-//W3C//DTD SVG 1.1//EN" "http://www.w3.org/Graphics/SVG/1.1/DTD/svg11.dtd">
<svg width="100%" height="100%" viewBox="0 0 4878 709" version="1.1" xmlns="http://www.w3.org/2000/svg" xmlns:xlink="http://www.w3.org/1999/xlink" xml:space="preserve" xmlns:serif="http://www.serif.com/" style="fill-rule:evenodd;clip-rule:evenodd;stroke-linejoin:round;stroke-miterlimit:2;">
    <g id="Plan-de-travail1" serif:id="Plan de travail1" transform="matrix(1,0,0,1,150,-1399.669783)">
        <rect x="-150" y="1399.67" width="4878" height="708.66" style="fill:none;"/>
        <clipPath id="_clip1">
            <rect x="-150" y="1399.67" width="4878" height="708.66"/>
        </clipPath>
        <g clip-path="url(#_clip1)">
            <g id="Calque1" transform="matrix(0.521922,0,0,0.527407,-149.999812,828.961726)">
                <g transform="matrix(0.449061,0,0,0.449061,-434.917735,959.25072)">
                    <path d="M1364.01,2445.454C1320.807,2475.705 1266.372,2485.135 1215.51,2471.179C1164.649,2457.222 1122.65,2421.33 1100.937,2373.266C1015.864,2184.203 968.504,1974.557 968.504,1753.937C968.504,1032.059 1475.549,427.673 2152.615,277.802C2205.054,266.18 2259.934,278.978 2301.821,312.599C2343.709,346.219 2368.079,397.029 2368.079,450.74C2368.11,575.281 2368.11,731.186 2368.11,841.899C2368.11,918.847 2318.446,986.964 2245.261,1010.533C1929.753,1110.33 1700.787,1405.606 1700.787,1753.937C1700.787,1846.538 1716.969,1935.39 1746.656,2017.816C1746.673,2017.863 1746.689,2017.909 1746.706,2017.955C1773.769,2093.17 1747.111,2177.201 1681.622,2223.057C1590.402,2286.933 1464.195,2375.304 1364.01,2445.454Z" style="fill:rgb(92,92,92);"/>
                </g>
                <g transform="matrix(0.449061,0,0,0.449061,-434.917735,959.25072)">
                    <path d="M2872.625,1385.529C2882.988,1376.029 2896.905,1371.269 2910.985,1372.411C2925.064,1373.552 2938.013,1380.489 2946.676,1391.532C3024.452,1491.683 3070.866,1617.432 3070.866,1753.937C3070.866,2079.871 2806.249,2344.488 2480.315,2344.488C2154.381,2344.488 1889.764,2079.871 1889.764,1753.937C1889.764,1428.003 2154.381,1163.386 2480.315,1163.386C2618.108,1163.386 2744.942,1210.681 2845.455,1289.909C2856.256,1298.49 2862.997,1311.103 2864.088,1324.767C2865.178,1338.431 2860.52,1351.935 2851.215,1362.087C2800.712,1417.405 2707.522,1519.077 2664.553,1565.956C2629.154,1604.591 2582.069,1630.849 2530.339,1640.807C2513.958,1643.876 2497.22,1645.486 2480.315,1645.486C2409.836,1645.486 2342.242,1617.489 2292.406,1567.652C2342.242,1617.489 2370.24,1685.082 2370.24,1755.561C2370.24,1826.041 2342.242,1893.634 2292.406,1943.47C2342.242,1893.634 2409.836,1865.636 2480.315,1865.636C2550.794,1865.636 2618.387,1893.634 2668.224,1943.47C2618.387,1893.634 2590.39,1826.041 2590.39,1755.561C2590.39,1709.836 2602.174,1665.326 2624.061,1626.092C2633.128,1609.681 2644.822,1594.832 2658.688,1582.123C2697.439,1546.1 2812.053,1441.047 2872.625,1385.529Z" style="fill:rgb(101,101,101);"/>
                </g>
                <g transform="matrix(0.449061,0,0,0.449061,-434.917735,959.25072)">
                    <path d="M3164.549,1020.453C3086.001,1106.148 2958.204,1127.117 2855.911,1071.094C2811.836,1046.513 2765.034,1026.299 2716.149,1010.78L2716.031,1010.742C2642.485,987.372 2592.522,919.078 2592.522,841.899C2592.52,731.186 2592.52,575.281 2592.52,450.74C2592.52,397.02 2616.895,346.201 2658.789,312.575C2700.684,278.949 2755.574,266.148 2808.022,277.772C2974.965,314.733 3131.572,379.326 3272.79,466.499C3335.842,505.734 3378.111,570.575 3388.238,643.597C3398.365,716.619 3375.31,790.332 3325.271,844.925C3272.45,902.73 3215.3,965.083 3164.549,1020.453Z" style="fill:rgb(163,163,163);"/>
                </g>
                <g transform="matrix(0.449061,0,0,0.449061,-434.917735,959.25072)">
                    <path d="M3385.725,915.233C3441.342,864.254 3517.198,840.766 3592.259,851.28C3667.32,861.794 3733.608,905.194 3772.743,969.446C3911.901,1198.246 3992.126,1466.797 3992.126,1753.937C3992.126,1974.557 3944.766,2184.203 3859.668,2373.254C3837.958,2421.311 3795.966,2457.197 3745.112,2471.152C3694.259,2485.106 3639.832,2475.678 3596.635,2445.432C3496.435,2375.304 3370.228,2286.933 3279.007,2223.059C3213.696,2177.328 3187.005,2093.63 3213.701,2018.573C3243.562,1935.934 3259.843,1846.822 3259.843,1753.937C3259.843,1617.242 3224.582,1488.717 3162.668,1376.97C3107.088,1276.689 3127.577,1151.847 3212.371,1074.127C3266.864,1024.178 3328.39,967.785 3385.725,915.233Z" style="fill:rgb(163,163,163);"/>
                </g>
                <g transform="matrix(0.449061,0,0,0.449061,-434.917735,959.25072)">
                    <path d="M3453.589,2619.256C3498.371,2650.613 3526.169,2700.887 3528.914,2755.487C3531.659,2810.086 3509.043,2862.895 3467.632,2898.585C3202.622,3127.313 2857.507,3265.748 2480.315,3265.748C2103.122,3265.748 1758.008,3127.313 1493.051,2898.524C1451.658,2862.85 1429.053,2810.065 1431.797,2755.491C1434.54,2700.916 1462.325,2650.664 1507.087,2619.322C1611.011,2546.456 1740.341,2455.898 1830.51,2392.761C1890.853,2350.508 1970.97,2350.043 2031.754,2391.387C2158.639,2480.881 2313.385,2533.465 2480.315,2533.465C2646.453,2533.465 2800.522,2481.378 2927.069,2392.658C2988.059,2350.06 3069.168,2350.108 3130.108,2392.779C3220.289,2455.898 3349.619,2546.456 3453.589,2619.256Z"/>
                </g>
                <g transform="matrix(27.623154,0,0,25.579444,-24924.374238,-52102.514713)">
                    <path d="M996.951,2118.801L996.951,2083.571L988.406,2083.571L978.397,2108.547L978.201,2108.547L968.191,2083.571L959.647,2083.571L959.647,2118.801L966.214,2118.801L966.214,2095.021L966.409,2095.021L975.98,2118.459L980.618,2118.459L990.189,2095.021L990.384,2095.021L990.384,2118.801L996.951,2118.801Z" style="fill-rule:nonzero;"/>
                    <g transform="matrix(1,0,0,1,-2.068169,0)">
                        <path d="M1013.943,2097.341C1017.117,2097.341 1019.29,2099.636 1019.437,2102.98L1008.328,2102.98C1008.572,2099.709 1010.818,2097.341 1013.943,2097.341ZM1019.534,2110.793C1018.875,2112.795 1016.873,2114.089 1014.261,2114.089C1010.623,2114.089 1008.255,2111.525 1008.255,2107.79L1008.255,2107.35L1026.297,2107.35L1026.297,2105.178C1026.297,2097.219 1021.487,2092.067 1013.87,2092.067C1006.131,2092.067 1001.248,2097.487 1001.248,2105.837C1001.248,2114.211 1006.082,2119.362 1014.139,2119.362C1020.608,2119.362 1025.296,2115.92 1026.077,2110.793L1019.534,2110.793Z" style="fill-rule:nonzero;"/>
                    </g>
                    <g transform="matrix(1,0,0,1,-4.120329,0)">
                        <path d="M1029.52,2100.319C1029.52,2104.177 1032.059,2106.764 1037.015,2107.887L1041.849,2108.962C1044.192,2109.523 1045.071,2110.256 1045.071,2111.574C1045.071,2113.283 1043.436,2114.357 1040.726,2114.357C1037.894,2114.357 1036.16,2113.088 1035.818,2110.89L1028.86,2110.89C1029.251,2115.993 1033.548,2119.362 1040.53,2119.362C1047.44,2119.362 1052.176,2115.969 1052.176,2110.817C1052.176,2106.911 1050.052,2104.836 1044.803,2103.664L1039.798,2102.59C1037.503,2102.053 1036.38,2101.174 1036.38,2099.88C1036.38,2098.195 1037.991,2097.072 1040.457,2097.072C1043.094,2097.072 1044.778,2098.366 1044.925,2100.466L1051.492,2100.466C1051.395,2095.387 1047.122,2092.067 1040.555,2092.067C1033.841,2092.067 1029.52,2095.339 1029.52,2100.319Z" style="fill-rule:nonzero;"/>
                    </g>
                    <g transform="matrix(1,0,0,1,-6.183899,0)">
                        <path d="M1067.728,2119.362C1075.638,2119.362 1080.691,2114.308 1080.691,2105.69C1080.691,2097.194 1075.565,2092.067 1067.728,2092.067C1059.891,2092.067 1054.764,2097.219 1054.764,2105.69C1054.764,2114.284 1059.817,2119.362 1067.728,2119.362ZM1067.728,2113.918C1064.212,2113.918 1061.99,2110.964 1061.99,2105.715C1061.99,2100.514 1064.261,2097.511 1067.728,2097.511C1071.194,2097.511 1073.441,2100.514 1073.441,2105.715C1073.441,2110.964 1071.219,2113.918 1067.728,2113.918Z" style="fill-rule:nonzero;"/>
                    </g>
                    <g transform="matrix(1,0,0,1,-8.213806,0)">
                        <path d="M1083.914,2100.319C1083.914,2104.177 1086.453,2106.764 1091.409,2107.887L1096.243,2108.962C1098.587,2109.523 1099.466,2110.256 1099.466,2111.574C1099.466,2113.283 1097.83,2114.357 1095.12,2114.357C1092.288,2114.357 1090.555,2113.088 1090.213,2110.89L1083.255,2110.89C1083.646,2115.993 1087.942,2119.362 1094.925,2119.362C1101.834,2119.362 1106.57,2115.969 1106.57,2110.817C1106.57,2106.911 1104.446,2104.836 1099.197,2103.664L1094.192,2102.59C1091.898,2102.053 1090.774,2101.174 1090.774,2099.88C1090.774,2098.195 1092.386,2097.072 1094.852,2097.072C1097.488,2097.072 1099.173,2098.366 1099.319,2100.466L1105.887,2100.466C1105.789,2095.387 1101.517,2092.067 1094.949,2092.067C1088.235,2092.067 1083.914,2095.339 1083.914,2100.319Z" style="fill-rule:nonzero;"/>
                    </g>
                    <g transform="matrix(1,0,0,1,-10.246442,0)">
                        <path d="M1125.394,2092.214C1121.609,2092.214 1118.704,2094.118 1117.288,2097.194L1117.142,2097.194L1117.142,2092.629L1110.11,2092.629L1110.11,2127.345L1117.239,2127.345L1117.239,2114.406L1117.386,2114.406C1118.777,2117.36 1121.707,2119.216 1125.516,2119.216C1132.059,2119.216 1136.111,2114.137 1136.111,2105.715C1136.111,2097.267 1132.034,2092.214 1125.394,2092.214ZM1123.001,2113.478C1119.51,2113.478 1117.215,2110.451 1117.215,2105.715C1117.215,2101.027 1119.51,2097.927 1123.001,2097.927C1126.566,2097.927 1128.812,2100.978 1128.812,2105.715C1128.812,2110.475 1126.566,2113.478 1123.001,2113.478Z" style="fill-rule:nonzero;"/>
                    </g>
                    <g transform="matrix(1,0,0,1,-12.308346,0)">
                        <path d="M1139.944,2118.801L1147.073,2118.801L1147.073,2103.859C1147.073,2100.417 1149.051,2098.049 1152.42,2098.049C1155.667,2098.049 1157.327,2100.099 1157.327,2103.469L1157.327,2118.801L1164.456,2118.801L1164.456,2101.955C1164.456,2095.9 1161.136,2092.14 1155.325,2092.14C1151.346,2092.14 1148.489,2093.996 1147.098,2097.292L1146.951,2097.292L1146.951,2083.571L1139.944,2083.571L1139.944,2118.801Z" style="fill-rule:nonzero;"/>
                    </g>
                    <g transform="matrix(1,0,0,1,-14.357246,0)">
                        <path d="M1180.74,2097.341C1183.914,2097.341 1186.087,2099.636 1186.233,2102.98L1175.125,2102.98C1175.369,2099.709 1177.615,2097.341 1180.74,2097.341ZM1186.331,2110.793C1185.672,2112.795 1183.67,2114.089 1181.058,2114.089C1177.42,2114.089 1175.052,2111.525 1175.052,2107.79L1175.052,2107.35L1193.094,2107.35L1193.094,2105.178C1193.094,2097.219 1188.284,2092.067 1180.667,2092.067C1172.928,2092.067 1168.045,2097.487 1168.045,2105.837C1168.045,2114.211 1172.879,2119.362 1180.936,2119.362C1187.405,2119.362 1192.093,2115.92 1192.874,2110.793L1186.331,2110.793Z" style="fill-rule:nonzero;"/>
                    </g>
                    <g transform="matrix(1,0,0,1,-16.361109,0)">
                        <path d="M1196.756,2118.801L1203.885,2118.801L1203.885,2104.177C1203.885,2100.49 1205.936,2098.342 1209.451,2098.342C1210.477,2098.342 1211.453,2098.512 1212.039,2098.757L1212.039,2092.482C1211.551,2092.336 1210.843,2092.214 1210.013,2092.214C1206.937,2092.214 1204.715,2094.02 1203.787,2097.341L1203.641,2097.341L1203.641,2092.629L1196.756,2092.629L1196.756,2118.801Z" style="fill-rule:nonzero;"/>
                    </g>
                    <g transform="matrix(1,0,0,1,-18.406325,0)">
                        <path d="M1225.833,2097.341C1229.007,2097.341 1231.18,2099.636 1231.326,2102.98L1220.218,2102.98C1220.462,2099.709 1222.708,2097.341 1225.833,2097.341ZM1231.424,2110.793C1230.765,2112.795 1228.763,2114.089 1226.15,2114.089C1222.513,2114.089 1220.145,2111.525 1220.145,2107.79L1220.145,2107.35L1238.187,2107.35L1238.187,2105.178C1238.187,2097.219 1233.377,2092.067 1225.76,2092.067C1218.021,2092.067 1213.138,2097.487 1213.138,2105.837C1213.138,2114.211 1217.972,2119.362 1226.028,2119.362C1232.498,2119.362 1237.186,2115.92 1237.967,2110.793L1231.424,2110.793Z" style="fill-rule:nonzero;"/>
                    </g>
                </g>
            </g>
        </g>
    </g>
</svg>
