<?xml version="1.0" encoding="UTF-8" standalone="no"?>
<!DOCTYPE svg PUBLIC "-//W3C//DTD SVG 1.1//EN" "http://www.w3.org/Graphics/SVG/1.1/DTD/svg11.dtd">
<svg width="100%" height="100%" viewBox="0 0 1240 1240" version="1.1" xmlns="http://www.w3.org/2000/svg" xmlns:xlink="http://www.w3.org/1999/xlink" xml:space="preserve" xmlns:serif="http://www.serif.com/" style="fill-rule:evenodd;clip-rule:evenodd;stroke-linejoin:round;stroke-miterlimit:2;">
    <g transform="matrix(0.999538,0,0,0.999539,-1859.168884,-1133.128299)">
        <path d="M3092.268,1744.08C3097.079,1744.892 3100.601,1749.058 3100.601,1753.937C3100.601,1758.816 3097.079,1762.982 3092.268,1763.794C2784.427,1814.774 2541.152,2058.049 2490.172,2365.89C2489.36,2370.701 2485.194,2374.223 2480.315,2374.223C2475.436,2374.223 2471.27,2370.701 2470.458,2365.89C2419.478,2058.049 2176.203,1814.774 1868.361,1763.794C1863.55,1762.982 1860.028,1758.816 1860.028,1753.937C1860.028,1749.058 1863.55,1744.892 1868.361,1744.08C2176.203,1693.1 2419.478,1449.825 2470.458,1141.984C2471.27,1137.173 2475.436,1133.651 2480.315,1133.651C2485.194,1133.651 2489.36,1137.173 2490.172,1141.984C2541.152,1449.825 2784.427,1693.1 3092.268,1744.08Z" style="fill:white;"/>
    </g>
</svg>
